HIERARCHY
ROOT Pelvis
{
	OFFSET 0.000000 0.941512 0.000000
	CHANNELS 6 Xposition Yposition Zposition Zrotation Yrotation Xrotation 
	JOINT Pelvis_L_Hip
	{
		OFFSET 0.000000 0.000000 0.000000
		CHANNELS 3 Zrotation Yrotation Xrotation
		JOINT L_Hip
		{
			OFFSET 0.062321 -0.080322 -0.016990
			CHANNELS 3 Zrotation Yrotation Xrotation
			JOINT L_Knee
			{
				OFFSET 0.093051 -0.381305 -0.029784
				CHANNELS 3 Zrotation Yrotation Xrotation
				JOINT L_Ankle
				{
					OFFSET -0.010371 -0.431000 -0.033614
					CHANNELS 3 Zrotation Yrotation Xrotation
					End Site #name: L_Foot
					{
						OFFSET 0.069299 -0.038670 0.119418
					}
				}
			}
		}
	}
	JOINT Pelvis_R_Hip
	{
		OFFSET 0.000000 0.000000 0.000000
		CHANNELS 3 Zrotation Yrotation Xrotation
		JOINT R_Hip
		{
			OFFSET -0.055334 -0.094904 -0.002373
			CHANNELS 3 Zrotation Yrotation Xrotation
			JOINT R_Knee
			{
				OFFSET -0.064207 -0.384370 -0.019592
				CHANNELS 3 Zrotation Yrotation Xrotation
				JOINT R_Ankle
				{
					OFFSET 0.025418 -0.419734 -0.065953
					CHANNELS 3 Zrotation Yrotation Xrotation
					End Site #name: R_Foot
					{
						OFFSET -0.057233 -0.039888 0.132134
					}
				}
			}
		}
	}
	JOINT Pelvis_Spine1
	{
		OFFSET 0.000000 0.000000 0.000000
		CHANNELS 3 Zrotation Yrotation Xrotation
		JOINT Spine1
		{
			OFFSET -0.005562 0.124093 -0.043360
			CHANNELS 3 Zrotation Yrotation Xrotation
			JOINT Spine2
			{
				OFFSET 0.012244 0.139499 0.029894
				CHANNELS 3 Zrotation Yrotation Xrotation
				JOINT Spine3
				{
					OFFSET -0.002556 0.056561 0.009225
					CHANNELS 3 Zrotation Yrotation Xrotation
					JOINT Spine3_Neck
					{
						OFFSET 0.000000 0.000000 0.000000
						CHANNELS 3 Zrotation Yrotation Xrotation
						JOINT Neck
						{
							OFFSET -0.005205 0.217920 -0.024551
							CHANNELS 3 Zrotation Yrotation Xrotation
							End Site #name: Head
							{
								OFFSET 0.002365 0.091850 0.046637
							}
						}
					}
					JOINT Spine3_L_Collar
					{
						OFFSET 0.000000 0.000000 0.000000
						CHANNELS 3 Zrotation Yrotation Xrotation
						JOINT L_Collar
						{
							OFFSET 0.072225 0.116603 -0.009480
							CHANNELS 3 Zrotation Yrotation Xrotation
							JOINT L_Shoulder
							{
								OFFSET 0.115937 -0.058643 -0.021018
								CHANNELS 3 Zrotation Yrotation Xrotation
								JOINT L_Elbow
								{
									OFFSET 0.021994 -0.254722 -0.024492
									CHANNELS 3 Zrotation Yrotation Xrotation
									End Site #name: L_Wrist
									{
										OFFSET 0.048810 -0.240214 0.103329
									}
								}
							}
						}
					}
					JOINT Spine3_R_Collar
					{
						OFFSET 0.000000 0.000000 0.000000
						CHANNELS 3 Zrotation Yrotation Xrotation
						JOINT R_Collar
						{
							OFFSET -0.073372 0.120704 -0.024611
							CHANNELS 3 Zrotation Yrotation Xrotation
							JOINT R_Shoulder
							{
								OFFSET -0.108089 -0.054969 -0.020504
								CHANNELS 3 Zrotation Yrotation Xrotation
								JOINT R_Elbow
								{
									OFFSET -0.033684 -0.260739 0.009889
									CHANNELS 3 Zrotation Yrotation Xrotation
									End Site #name: R_Wrist
									{
										OFFSET -0.067980 -0.232763 0.118463
									}
								}
							}
						}
					}
				}
			}
		}
	}
}
MOTION
Frames: 11
Frame Time: 0.041667
-0.003970 0.946416 -0.012042 -6.459229 -14.084485 -1.020104 0.000000 0.000000 0.000000 3.951317 -0.596115 -1.789751 3.996771 -0.549554 3.445662 0.013217 2.731183 1.778068 0.000000 0.000000 0.000000 3.820828 -0.255555 0.183126 -1.705999 0.126499 -1.484165 2.294491 -4.409349 7.508891 0.000000 0.000000 0.000000 -0.753879 0.134778 0.519071 1.261821 -0.224554 -1.102178 5.881739 -4.681791 -0.139968 0.000000 0.000000 0.000000 -3.882775 2.556994 6.824520 0.000000 0.000000 0.000000 44.330741 -35.562479 -37.385814 -35.520622 -14.145475 -41.684218 7.910589 -23.082108 -93.905660 0.000000 0.000000 0.000000 -40.379280 26.283638 -15.833808 2.549299 3.983197 -25.809398 -43.961388 -40.342848 -68.054946 
-0.005541 0.946870 -0.012869 -6.758719 -15.420128 -1.200676 0.000000 0.000000 0.000000 4.217151 -0.498055 -1.325920 4.081206 -0.584020 3.882459 0.388135 3.855588 1.804326 0.000000 0.000000 0.000000 4.173218 -0.278516 0.198833 -1.826064 0.154970 -1.290117 2.781488 -3.327250 7.534004 0.000000 0.000000 0.000000 0.150826 -0.084348 0.780802 0.624624 -0.140956 -1.363571 5.545852 -5.784099 -0.057897 0.000000 0.000000 0.000000 -3.488517 2.663836 9.551308 0.000000 0.000000 0.000000 48.864603 -36.599998 -41.971367 -35.572093 -15.126711 -43.400731 8.339863 -21.914472 -94.199179 0.000000 0.000000 0.000000 -44.061903 27.349551 -16.910832 0.740529 3.850952 -28.884647 -40.869737 -36.032092 -67.765444 
-0.007130 0.946960 -0.013996 -7.121007 -16.699039 -1.468437 0.000000 0.000000 0.000000 4.603891 -0.373773 -0.719000 4.089178 -0.603628 4.226034 0.737479 4.871030 1.807688 0.000000 0.000000 0.000000 4.590458 -0.343382 0.414570 -1.930548 0.170752 -1.233034 3.221898 -2.320919 7.535567 0.000000 0.000000 0.000000 1.128918 -0.315729 0.973931 -0.114107 -0.027810 -1.143866 5.059532 -6.611437 -0.002520 0.000000 0.000000 0.000000 -2.332515 2.293879 12.165950 0.000000 0.000000 0.000000 50.501289 -37.336523 -44.599837 -36.502931 -15.002580 -42.267942 7.960093 -22.802334 -94.147131 0.000000 0.000000 0.000000 -47.329141 28.190726 -17.850992 -1.969289 3.229629 -31.034376 -38.159069 -32.351771 -67.709053 
-0.008281 0.946914 -0.015325 -7.463197 -17.605537 -1.738063 0.000000 0.000000 0.000000 5.001486 -0.259281 -0.141799 4.060426 -0.607406 4.360796 0.954995 5.556091 1.851761 0.000000 0.000000 0.000000 4.983308 -0.428109 0.737219 -2.013953 0.172010 -1.329211 3.575003 -1.592091 7.605414 0.000000 0.000000 0.000000 1.949375 -0.503957 1.069748 -0.733330 0.085331 -0.602525 4.531843 -7.230092 0.067057 0.000000 0.000000 0.000000 -0.840234 1.656765 14.701220 0.000000 0.000000 0.000000 50.687864 -38.082575 -46.213874 -37.888998 -14.331529 -39.894804 7.485071 -24.119790 -94.158578 0.000000 0.000000 0.000000 -50.030509 28.774121 -18.606847 -4.583418 2.476861 -32.322338 -36.311285 -30.032312 -68.031176 
-0.008811 0.946971 -0.016879 -7.704207 -18.066246 -1.914993 0.000000 0.000000 0.000000 5.287400 -0.193180 0.205483 4.053137 -0.606201 4.345428 1.021937 5.887179 1.961306 0.000000 0.000000 0.000000 5.259411 -0.492604 0.986642 -2.065920 0.162972 -1.510884 3.858335 -1.154648 7.784801 0.000000 0.000000 0.000000 2.408542 -0.604705 1.078228 -1.003753 0.157695 0.062046 4.135905 -7.704998 0.158656 0.000000 0.000000 0.000000 0.296678 1.200582 17.156469 0.000000 0.000000 0.000000 51.050173 -38.816938 -47.797694 -39.502189 -13.839804 -37.884343 7.438211 -24.439432 -94.363067 0.000000 0.000000 0.000000 -52.103528 29.130099 -19.162160 -5.993397 2.067079 -33.562351 -35.712481 -29.504735 -68.426919 
-0.008813 0.947190 -0.018760 -7.813405 -18.215953 -1.927351 0.000000 0.000000 0.000000 5.407268 -0.195873 0.206732 4.094571 -0.609845 4.307770 0.985763 5.994535 2.130465 0.000000 0.000000 0.000000 5.375784 -0.503176 1.006626 -2.071286 0.148391 -1.694711 4.097549 -0.907031 8.036386 0.000000 0.000000 0.000000 2.405192 -0.599510 1.029814 -0.783316 0.154252 0.704099 4.030136 -7.999259 0.210852 0.000000 0.000000 0.000000 0.547650 1.321159 19.443609 0.000000 0.000000 0.000000 52.399841 -39.428750 -49.805562 -41.175784 -13.947180 -37.041548 7.808433 -23.521595 -94.556709 0.000000 0.000000 0.000000 -53.451010 29.403164 -19.659657 -5.919923 2.173100 -35.385113 -36.715303 -31.041819 -68.209652 
-0.008495 0.947465 -0.020866 -7.825744 -18.230778 -1.797795 0.000000 0.000000 0.000000 5.405913 -0.248593 -0.049251 4.162397 -0.617344 4.284277 0.906896 6.014268 2.328091 0.000000 0.000000 0.000000 5.371870 -0.465882 0.818484 -2.041834 0.131565 -1.856216 4.281566 -0.771484 8.273004 0.000000 0.000000 0.000000 2.055400 -0.519022 0.983708 -0.162711 0.080006 1.266959 4.219977 -8.009008 0.166417 0.000000 0.000000 0.000000 -0.095402 2.042243 21.250868 0.000000 0.000000 0.000000 54.295610 -39.768118 -51.742407 -42.417161 -14.531597 -37.314486 8.176840 -22.264694 -94.448021 0.000000 0.000000 0.000000 -53.975440 29.742761 -20.289521 -5.086084 2.609934 -37.668399 -39.621105 -34.706095 -66.762981 
-0.007981 0.947647 -0.022820 -7.782166 -18.168746 -1.612914 0.000000 0.000000 0.000000 5.341486 -0.317945 -0.393039 4.228142 -0.623640 4.243311 0.811804 5.963646 2.506166 0.000000 0.000000 0.000000 5.302043 -0.409433 0.551840 -2.004442 0.115888 -1.994784 4.376087 -0.746883 8.429613 0.000000 0.000000 0.000000 1.594086 -0.415523 0.958969 0.610357 -0.026729 1.754615 4.533539 -7.715148 0.054459 0.000000 0.000000 0.000000 -1.204144 3.033622 22.373717 0.000000 0.000000 0.000000 55.778651 -39.777046 -52.770859 -42.828236 -15.128529 -38.074989 8.127150 -21.877576 -93.977660 0.000000 0.000000 0.000000 -53.814273 30.140997 -21.035762 -4.460468 3.034065 -39.908989 -44.681916 -40.136650 -63.620127 
-0.007341 0.947650 -0.024172 -7.686465 -17.979064 -1.486216 0.000000 0.000000 0.000000 5.227264 -0.375452 -0.681812 4.275283 -0.625555 4.165445 0.700124 5.774949 2.609169 0.000000 0.000000 0.000000 5.177866 -0.360178 0.337154 -1.971205 0.106982 -2.059734 4.343268 -0.870544 8.471090 0.000000 0.000000 0.000000 1.185789 -0.325138 0.960071 1.301045 -0.126249 2.175516 4.794097 -7.246787 -0.047455 0.000000 0.000000 0.000000 -2.236039 3.858302 22.847061 0.000000 0.000000 0.000000 56.306192 -39.581217 -52.640705 -42.689144 -15.363904 -38.540452 7.586253 -22.818730 -93.424959 0.000000 0.000000 0.000000 -53.351556 30.423687 -21.632907 -4.294074 3.305308 -41.960375 -52.068748 -46.350324 -58.278059 
-0.006715 0.947517 -0.024667 -7.536298 -17.633777 -1.499011 0.000000 0.000000 0.000000 5.059735 -0.405262 -0.839140 4.309637 -0.625367 4.084733 0.572077 5.415003 2.609757 0.000000 0.000000 0.000000 4.997795 -0.330616 0.239628 -1.933788 0.110390 -1.966959 4.186926 -1.126600 8.396904 0.000000 0.000000 0.000000 0.862736 -0.253551 0.965679 1.817753 -0.200797 2.565872 4.954909 -6.792911 -0.079814 0.000000 0.000000 0.000000 -2.892534 4.306760 22.915343 0.000000 0.000000 0.000000 56.154982 -39.331126 -51.864085 -42.692563 -15.233712 -38.295621 6.787759 -24.680653 -93.115642 0.000000 0.000000 0.000000 -53.022301 30.435489 -21.849165 -3.935867 3.659264 -43.954424 -61.254473 -51.842976 -50.874667 
-0.006294 0.947373 -0.024380 -7.351490 -17.209050 -1.656543 0.000000 0.000000 0.000000 4.851968 -0.403782 -0.851126 4.351764 -0.628056 4.048842 0.447766 4.963099 2.529168 0.000000 0.000000 0.000000 4.779580 -0.320818 0.256101 -1.879681 0.126142 -1.693298 3.966009 -1.422192 8.240588 0.000000 0.000000 0.000000 0.580128 -0.186630 0.913102 2.186443 -0.252347 2.967627 5.113920 -6.462492 0.001234 0.000000 0.000000 0.000000 -3.245564 4.496806 22.849241 0.000000 0.000000 0.000000 55.897369 -39.054907 -51.011732 -43.327932 -14.979525 -37.465619 5.950448 -26.857264 -93.087057 0.000000 0.000000 0.000000 -52.994245 30.167120 -21.650460 -2.480059 4.464644 -45.536547 -69.117361 -55.206190 -44.350126 
